<?xml version="1.0" encoding="utf-8"?>
<svg version="1.0" width="200.000000pt" height="200.000000pt" viewBox="0 0 200.000000 200.000000" preserveAspectRatio="xMidYMid meet" xmlns="http://www.w3.org/2000/svg">
  <defs/>
  <g transform="translate(0.000000,200.000000) scale(0.100000,-0.100000)" fill="#000000" stroke="none">
    <path d="M1543 1824 c-54 -20 -117 -83 -139 -139 -16 -43 -16 -138 0 -176 5&#10;-11 -27 -44 -119 -121 l-126 -107 -34 14 c-92 39 -214 24 -304 -37 l-44 -29&#10;-96 58 c-62 38 -95 64 -92 74 2 8 4 39 4 69 1 95 -55 184 -142 227 -53 26&#10;-164 24 -216 -4 -199 -106 -171 -397 44 -459 64 -19 120 -14 183 17 l44 21 97&#10;-59 c95 -56 97 -59 91 -88 -4 -16 -7 -58 -6 -92 2 -196 198 -351 382 -303 78&#10;20 79 20 143 -62 l60 -77 -22 -50 c-70 -164 45 -343 223 -344 77 -1 138 26&#10;187 80 117 129 64 341 -98 399 -44 15 -121 18 -156 5 -22 -9 -29 -3 -90 76&#10;l-65 86 23 36 c53 81 58 208 12 299 l-25 50 118 101 118 101 39 -17 c89 -38&#10;208 -11 272 62 45 52 61 94 61 162 -1 171 -164 284 -327 227z m-476 -655 c34&#10;-13 80 -55 99 -91 8 -15 14 -50 14 -78 0 -57 -15 -93 -57 -132 -124 -117 -331&#10;-3 -299 166 20 106 141 174 243 135z" style="fill: rgb(255, 255, 255);"/>
  </g>
</svg>
