<?xml version="1.0" standalone="no"?>
<!DOCTYPE svg PUBLIC "-//W3C//DTD SVG 20010904//EN"
 "http://www.w3.org/TR/2001/REC-SVG-20010904/DTD/svg10.dtd">
<svg version="1.0" xmlns="http://www.w3.org/2000/svg"
 width="700.000000pt" height="700.000000pt" viewBox="0 0 700.000000 700.000000"
 preserveAspectRatio="xMidYMid meet">
<metadata>
Created by potrace 1.14, written by Peter Selinger 2001-2017
</metadata>
<g transform="translate(0.000000,700.000000) scale(0.100000,-0.100000)"
fill="#000000" stroke="none">
<path d="M5610 6432 c-69 -6 -206 -45 -272 -78 -178 -90 -370 -302 -427 -471
-26 -80 -34 -138 -36 -286 -2 -135 6 -215 29 -283 12 -36 12 -46 -1 -72 -19
-39 -184 -199 -338 -327 -33 -27 -71 -59 -85 -72 -14 -12 -92 -79 -175 -148
-82 -70 -172 -146 -199 -170 l-50 -42 -50 22 c-95 41 -214 79 -287 90 -79 12
-259 12 -339 -1 -218 -34 -355 -89 -557 -225 l-104 -69 -52 32 c-170 105 -282
173 -292 177 -35 14 -249 168 -279 201 -34 38 -35 42 -29 92 12 101 6 320 -11
392 -39 164 -115 302 -231 421 -180 184 -335 247 -610 247 -172 0 -333 -38
-438 -103 -156 -98 -262 -214 -336 -369 -57 -119 -81 -222 -84 -355 -3 -136 6
-195 43 -305 91 -272 289 -462 575 -550 99 -30 135 -35 260 -35 100 1 188 13
240 35 11 4 38 15 60 23 22 8 84 36 137 62 l98 47 56 -34 c30 -18 78 -46 105
-63 27 -16 97 -59 157 -95 169 -101 295 -185 320 -212 25 -28 28 -56 16 -143
-5 -33 -9 -148 -8 -255 1 -210 10 -267 69 -414 67 -169 208 -360 335 -456 19
-14 45 -34 59 -46 77 -62 250 -144 369 -175 180 -46 325 -45 535 5 137 33 181
34 237 9 47 -21 86 -59 161 -153 46 -58 50 -63 176 -225 42 -55 81 -101 85
-103 15 -7 8 -35 -36 -136 -24 -55 -53 -132 -65 -171 -142 -488 174 -998 672
-1083 83 -14 298 -7 377 12 331 82 584 364 636 711 3 17 5 73 5 125 3 355
-209 674 -532 803 -36 14 -78 28 -94 31 -17 3 -52 10 -80 15 -85 17 -331 8
-397 -14 l-58 -19 -36 26 c-53 38 -98 93 -341 411 l-113 149 39 56 c91 134
159 295 176 417 15 107 20 162 19 205 -3 105 -8 167 -15 194 -5 16 -11 47 -14
69 -9 59 -54 176 -115 299 -30 59 -52 109 -49 111 8 6 343 291 494 420 179
154 183 157 262 224 34 29 66 53 71 53 4 0 49 -17 98 -38 85 -37 154 -59 219
-68 44 -7 205 -7 243 0 17 3 47 8 65 11 68 12 201 65 276 110 209 126 362 352
386 571 24 206 -3 372 -85 534 -101 198 -264 338 -475 409 -118 39 -240 54
-365 43z m-1964 -2314 c101 -22 197 -77 300 -174 143 -136 188 -255 179 -479
-5 -130 -5 -132 -40 -216 -63 -149 -208 -282 -376 -344 -64 -24 -89 -28 -189
-29 -95 0 -127 3 -184 22 -119 40 -196 86 -277 165 -240 233 -247 621 -16 859
38 39 140 118 152 118 5 0 16 6 24 14 15 13 141 59 186 68 41 9 193 6 241 -4z"/>
</g>
</svg>
